<mxfile host="app.diagrams.net" modified="2023-11-22T13:41:18.234Z" agent="Mozilla/5.0 (X11; Linux x86_64; rv:109.0) Gecko/20100101 Firefox/119.0" etag="OUgHK0gaDsgXgQ98Zotm" version="22.1.3" type="github">
  <diagram name="Page-1" id="SNL4WYoTok5QRGz_ur4i">
    <mxGraphModel dx="933" dy="1153" grid="1" gridSize="10" guides="1" tooltips="1" connect="1" arrows="1" fold="1" page="1" pageScale="1" pageWidth="850" pageHeight="1100" math="0" shadow="0">
      <root>
        <mxCell id="0" />
        <mxCell id="1" parent="0" />
      </root>
    </mxGraphModel>
  </diagram>
</mxfile>
